<svg viewBox="0 0 760 340" width="760" height="340" role="img" aria-label="Lowest task 3 accuracy reached while task 0 stayed within 5 points" xmlns="http://www.w3.org/2000/svg">
<style>
  svg{--bg:#ffffff;--ink:#1b2027;--muted:#5e6878;--line:#d5dae2;--soft:#e6eaf0;--target:#4a63b5;--retain:#2f7f72;--fail:#9c4a3c;--bandr:#2f7f7219;--bandp:#2f7f4f17}
  @media (prefers-color-scheme:dark){svg{--bg:#1a1f26;--ink:#e4e8ee;--muted:#9aa5b5;--line:#333c49;--soft:#28303a;--target:#8ba0e0;--retain:#58b7a6;--fail:#dd8b78;--bandr:#58b7a61f;--bandp:#6cc48d1c}}

  svg{font-family:ui-monospace,Consolas,monospace}
  text{fill:var(--muted);font-size:12px}
  .ct{fill:var(--ink);font-family:system-ui,sans-serif;font-weight:600}
  .sub{fill:var(--muted);font-family:system-ui,sans-serif}
  .grid{stroke:var(--soft);stroke-width:1}
  .axis{stroke:var(--line);stroke-width:1}
  .chance{stroke:var(--muted);stroke-width:1;stroke-dasharray:2 3;opacity:.7}
  .target-line{stroke:var(--target);stroke-width:1.4;stroke-dasharray:5 4}
  .band-retain{fill:var(--bandr)} .band-pass{fill:var(--bandp)}
  .ln-target{stroke:var(--target);stroke-width:2.2;fill:none}
  .ln-retain{stroke:var(--retain);stroke-width:2.2;fill:none}
  .dot-target{fill:var(--target)} .dot-retain{fill:var(--retain)}
  .bar-target{fill:var(--target);opacity:.85}
  .lbl-target{fill:var(--target)} .lbl-retain{fill:var(--retain)}
  .lbl-chance{fill:var(--muted)} .lbl-fail{fill:var(--fail)}
  .bar-learn{fill:var(--retain);opacity:.8}
  .bar-before{fill:var(--fail);opacity:.8}
  .bar-spill{fill:var(--fail);opacity:.8}
  .stem{stroke:var(--line);stroke-width:1.5}
  .val{fill:var(--ink)} .val-sm{fill:var(--muted)}
</style>
<rect width="760" height="340" fill="var(--bg)"/>
<text x="0.0" y="16.0" text-anchor="start" font-size="14" class="ct">Lowest task 3 accuracy reached while task 0 stayed within 5 points</text>
<rect x="112" y="34" width="247.7" height="264.0" class="band-pass"/>
<line x1="112.0" y1="34" x2="112.0" y2="298.0" class="grid"/>
<text x="112.0" y="316.0" text-anchor="middle" font-size="12" class="ax">0</text>
<line x1="194.6" y1="34" x2="194.6" y2="298.0" class="grid"/>
<text x="194.6" y="316.0" text-anchor="middle" font-size="12" class="ax">4</text>
<line x1="277.1" y1="34" x2="277.1" y2="298.0" class="grid"/>
<text x="277.1" y="316.0" text-anchor="middle" font-size="12" class="ax">8</text>
<line x1="359.7" y1="34" x2="359.7" y2="298.0" class="grid"/>
<text x="359.7" y="316.0" text-anchor="middle" font-size="12" class="ax">12</text>
<line x1="442.3" y1="34" x2="442.3" y2="298.0" class="grid"/>
<text x="442.3" y="316.0" text-anchor="middle" font-size="12" class="ax">16</text>
<line x1="524.9" y1="34" x2="524.9" y2="298.0" class="grid"/>
<text x="524.9" y="316.0" text-anchor="middle" font-size="12" class="ax">20</text>
<line x1="607.4" y1="34" x2="607.4" y2="298.0" class="grid"/>
<text x="607.4" y="316.0" text-anchor="middle" font-size="12" class="ax">24</text>
<line x1="690.0" y1="34" x2="690.0" y2="298.0" class="grid"/>
<text x="690.0" y="316.0" text-anchor="middle" font-size="12" class="ax">28</text>
<line x1="359.7" y1="28" x2="359.7" y2="300.0" class="target-line"/>
<text x="364.7" y="24.0" text-anchor="start" font-size="12" class="lbl-target">criterion: 12% or lower</text>
<text x="102.0" y="52.7" text-anchor="end" font-size="12" class="ax">E08</text>
<text x="118.0" y="52.7" text-anchor="start" font-size="12" class="lbl-fail">no update held task 0 within 5 points</text>
<text x="102.0" y="82.0" text-anchor="end" font-size="12" class="ax">E09</text>
<rect x="112" y="69.0" width="330.3" height="18" rx="2" class="bar-target"/>
<text x="449.3" y="82.0" text-anchor="start" font-size="12" class="val">16.0%  at update 5</text>
<text x="102.0" y="111.3" text-anchor="end" font-size="12" class="ax">E10</text>
<rect x="112" y="98.3" width="330.3" height="18" rx="2" class="bar-target"/>
<text x="449.3" y="111.3" text-anchor="start" font-size="12" class="val">16.0%  at update 7</text>
<text x="102.0" y="140.7" text-anchor="end" font-size="12" class="ax">E11</text>
<rect x="112" y="127.7" width="276.6" height="18" rx="2" class="bar-target"/>
<text x="395.6" y="140.7" text-anchor="start" font-size="12" class="val">13.4%  at update 20</text>
<text x="102.0" y="170.0" text-anchor="end" font-size="12" class="ax">E12</text>
<rect x="112" y="157.0" width="268.4" height="18" rx="2" class="bar-target"/>
<text x="387.4" y="170.0" text-anchor="start" font-size="12" class="val">13.0%  at update 29</text>
<text x="102.0" y="199.3" text-anchor="end" font-size="12" class="ax">E13</text>
<rect x="112" y="186.3" width="268.4" height="18" rx="2" class="bar-target"/>
<text x="387.4" y="199.3" text-anchor="start" font-size="12" class="val">13.0%  at update 29</text>
<text x="102.0" y="228.7" text-anchor="end" font-size="12" class="ax">E14</text>
<rect x="112" y="215.7" width="260.1" height="18" rx="2" class="bar-target"/>
<text x="379.1" y="228.7" text-anchor="start" font-size="12" class="val">12.6%  at update 27</text>
<text x="102.0" y="258.0" text-anchor="end" font-size="12" class="ax">E15</text>
<rect x="112" y="245.0" width="330.3" height="18" rx="2" class="bar-target"/>
<text x="449.3" y="258.0" text-anchor="start" font-size="12" class="val">16.0%  at update 9</text>
<text x="102.0" y="287.3" text-anchor="end" font-size="12" class="ax">30-step run</text>
<rect x="112" y="274.3" width="260.1" height="18" rx="2" class="bar-target"/>
<text x="379.1" y="287.3" text-anchor="start" font-size="12" class="val">12.6%  at update 27</text>
<line x1="112" y1="298.0" x2="690" y2="298.0" class="axis"/>
<text x="112.0" y="334.0" text-anchor="start" font-size="12" class="ax">task 3 validation accuracy (%).  10% is random guessing.</text>
</svg>
